<svg width="16" height="17" viewBox="0 0 16 17" fill="none" xmlns="http://www.w3.org/2000/svg">
<path d="M14.4004 11.3672L9.74905 2.88842C9.56096 2.56501 9.30183 2.29886 8.99554 2.1145C8.68925 1.93013 8.34566 1.8335 7.99645 1.8335C7.64724 1.8335 7.30365 1.93013 6.99736 2.1145C6.69107 2.29886 6.43194 2.56501 6.24386 2.88842L1.59251 11.3672C1.42819 11.6682 1.33889 12.0115 1.33357 12.3626C1.32824 12.7136 1.40709 13.06 1.56218 13.3669C1.74149 13.7123 2.00104 13.9993 2.31428 14.1984C2.62753 14.3974 2.98326 14.5016 3.3451 14.5H12.6478C13.0073 14.5043 13.3614 14.4042 13.6744 14.2099C13.9875 14.0156 14.2483 13.734 14.4307 13.3935C14.5904 13.0834 14.6717 12.7321 14.6664 12.3758C14.6611 12.0196 14.5692 11.6713 14.4004 11.3672ZM13.3695 12.7336C13.2966 12.8713 13.1908 12.9845 13.0636 13.0609C12.9364 13.1372 12.7926 13.1739 12.6478 13.1669H3.3451C3.2003 13.1739 3.05651 13.1372 2.9293 13.0609C2.8021 12.9845 2.69633 12.8713 2.62344 12.7336C2.57022 12.6323 2.5422 12.5174 2.5422 12.4003C2.5422 12.2833 2.57022 12.1684 2.62344 12.0671L7.28086 3.58165C7.36455 3.46014 7.47271 3.3616 7.59687 3.29374C7.72103 3.22589 7.8578 3.19058 7.99645 3.19058C8.13511 3.19058 8.27188 3.22589 8.39603 3.29374C8.52019 3.3616 8.62835 3.46014 8.71204 3.58165L13.3634 12.0604C13.4187 12.1619 13.4484 12.2778 13.4494 12.3961C13.4505 12.5144 13.4229 12.6309 13.3695 12.7336Z" fill="#586283"/>
<path d="M7.99998 11.8333C8.36817 11.8333 8.66665 11.5349 8.66665 11.1667C8.66665 10.7985 8.36817 10.5 7.99998 10.5C7.63179 10.5 7.33331 10.7985 7.33331 11.1667C7.33331 11.5349 7.63179 11.8333 7.99998 11.8333Z" fill="#586283"/>
<path d="M7.99998 5.8335C7.82317 5.8335 7.6536 5.90373 7.52858 6.02876C7.40355 6.15378 7.33331 6.32335 7.33331 6.50016V9.16683C7.33331 9.34364 7.40355 9.51321 7.52858 9.63823C7.6536 9.76326 7.82317 9.8335 7.99998 9.8335C8.17679 9.8335 8.34636 9.76326 8.47138 9.63823C8.59641 9.51321 8.66665 9.34364 8.66665 9.16683V6.50016C8.66665 6.32335 8.59641 6.15378 8.47138 6.02876C8.34636 5.90373 8.17679 5.8335 7.99998 5.8335Z" fill="#586283"/>
</svg>
