<svg width="18" height="22" viewBox="0 0 18 22" fill="none" xmlns="http://www.w3.org/2000/svg">
<path d="M3.80212 10.15L6.85181 7.10173L6.85183 7.10171C7.01141 6.94213 7.10107 6.72569 7.10107 6.5C7.10107 6.27431 7.01141 6.05787 6.85183 5.89829C6.69225 5.73871 6.47581 5.64905 6.25012 5.64905C6.02443 5.64905 5.80799 5.73871 5.64841 5.89829L1.1485 10.3982L3.80212 10.15ZM3.80212 10.15H12.2501C12.4756 10.15 12.6918 10.2396 12.8512 10.399C13.0106 10.5584 13.1001 10.7746 13.1001 11C13.1001 11.2254 13.0106 11.4416 12.8512 11.601C12.6918 11.7604 12.4756 11.85 12.2501 11.85H3.80212L6.85181 14.8983L6.85183 14.8983C6.93085 14.9773 6.99353 15.0711 7.03629 15.1744C7.07906 15.2776 7.10107 15.3883 7.10107 15.5C7.10107 15.6117 7.07906 15.7224 7.03629 15.8256C6.99353 15.9289 6.93085 16.0227 6.85183 16.1017C6.77281 16.1807 6.67901 16.2434 6.57576 16.2862C6.47252 16.3289 6.36187 16.3509 6.25012 16.3509C6.13837 16.3509 6.02772 16.3289 5.92448 16.2862C5.82123 16.2434 5.72743 16.1807 5.64841 16.1017L1.1485 11.6018L3.80212 10.15ZM16.1491 21.351C16.3085 21.5104 16.5247 21.6 16.7501 21.6C16.9756 21.6 17.1918 21.5104 17.3512 21.351C17.5106 21.1916 17.6001 20.9754 17.6001 20.75V1.25C17.6001 1.02457 17.5106 0.808365 17.3512 0.648959C17.1918 0.489553 16.9756 0.4 16.7501 0.4C16.5247 0.4 16.3085 0.489553 16.1491 0.648959C15.9897 0.808365 15.9001 1.02457 15.9001 1.25V20.75C15.9001 20.9754 15.9897 21.1916 16.1491 21.351ZM0.963687 11.3258C1.00652 11.429 1.06929 11.5228 1.14841 11.6017V10.3983C1.06929 10.4772 1.00652 10.571 0.963687 10.6742C0.920837 10.7775 0.898779 10.8882 0.898779 11C0.898779 11.1118 0.920837 11.2225 0.963687 11.3258Z" fill="#586283" stroke="#586283" stroke-width="0.2"/>
</svg>
