<svg width="17" height="15" viewBox="0 0 17 15" fill="none" xmlns="http://www.w3.org/2000/svg">
<path fillRule="evenodd" clipRule="evenodd" d="M0 7.52653C0 7.26131 0.105357 7.00696 0.292893 6.81942C0.48043 6.63189 0.734784 6.52653 1 6.52653H12.586L8.292 2.23453C8.10423 2.04676 7.99874 1.79208 7.99874 1.52653C7.99874 1.26098 8.10423 1.00631 8.292 0.818532C8.47977 0.630759 8.73445 0.525269 9 0.525269C9.26555 0.525269 9.52023 0.630759 9.708 0.818532L15.708 6.81853C15.8011 6.91142 15.875 7.02177 15.9254 7.14326C15.9758 7.26475 16.0018 7.395 16.0018 7.52653C16.0018 7.65807 15.9758 7.78831 15.9254 7.9098C15.875 8.03129 15.8011 8.14164 15.708 8.23453L9.708 14.2345C9.52023 14.4223 9.26555 14.5278 9 14.5278C8.73445 14.5278 8.47977 14.4223 8.292 14.2345C8.10423 14.0468 7.99874 13.7921 7.99874 13.5265C7.99874 13.261 8.10423 13.0063 8.292 12.8185L12.586 8.52653H1C0.734784 8.52653 0.48043 8.42118 0.292893 8.23364C0.105357 8.0461 0 7.79175 0 7.52653Z" fill="white"/>
</svg>
