<svg width="24" height="25" viewBox="0 0 24 25" fill="none" xmlns="http://www.w3.org/2000/svg">
<path d="M12 2.52649C9.35831 2.56018 6.8343 3.62456 4.96618 5.49267C3.09807 7.36078 2.03369 9.8848 2 12.5265C2.01235 14.0654 2.37972 15.5807 3.07351 16.9544C3.7673 18.3281 4.76879 19.5232 6 20.4465V20.5265H6.1C7.79318 21.824 9.86685 22.5271 12 22.5271C14.1332 22.5271 16.2068 21.824 17.9 20.5265H18V20.4465C19.2312 19.5232 20.2327 18.3281 20.9265 16.9544C21.6203 15.5807 21.9877 14.0654 22 12.5265C21.9663 9.8848 20.9019 7.36078 19.0338 5.49267C17.1657 3.62456 14.6417 2.56018 12 2.52649ZM8.07 19.4565C8.21599 18.7879 8.58615 18.1894 9.11908 17.7601C9.65202 17.3309 10.3157 17.0967 11 17.0965H13C13.6843 17.0967 14.348 17.3309 14.8809 17.7601C15.4138 18.1894 15.784 18.7879 15.93 19.4565C14.7389 20.1573 13.382 20.5268 12 20.5268C10.618 20.5268 9.26113 20.1573 8.07 19.4565ZM17.61 18.1665C17.2296 17.2574 16.5891 16.4811 15.7689 15.9348C14.9487 15.3886 13.9854 15.097 13 15.0965H11C10.0146 15.097 9.05127 15.3886 8.23108 15.9348C7.41088 16.4811 6.77037 17.2574 6.39 18.1665C5.64066 17.4295 5.0439 16.552 4.63381 15.5843C4.22373 14.6166 4.00835 13.5775 4 12.5265C4.02594 10.4128 4.87712 8.39302 6.37183 6.89831C7.86653 5.40361 9.88633 4.55243 12 4.52649C14.1137 4.55243 16.1335 5.40361 17.6282 6.89831C19.1229 8.39302 19.9741 10.4128 20 12.5265C19.9916 13.5775 19.7763 14.6166 19.3662 15.5843C18.9561 16.552 18.3593 17.4295 17.61 18.1665Z" fill="#586283"/>
<path d="M12 6.52645C11.4714 6.51414 10.9457 6.60918 10.4548 6.80584C9.96397 7.0025 9.51809 7.29669 9.14417 7.6706C8.77026 8.04452 8.47607 8.4904 8.27941 8.98127C8.08275 9.47214 7.98771 9.9978 8.00002 10.5265C7.98771 11.0551 8.08275 11.5808 8.27941 12.0716C8.47607 12.5625 8.77026 13.0084 9.14417 13.3823C9.51809 13.7562 9.96397 14.0504 10.4548 14.2471C10.9457 14.4437 11.4714 14.5388 12 14.5265C12.5287 14.5388 13.0543 14.4437 13.5452 14.2471C14.0361 14.0504 14.482 13.7562 14.8559 13.3823C15.2298 13.0084 15.524 12.5625 15.7206 12.0716C15.9173 11.5808 16.0123 11.0551 16 10.5265C16.0123 9.9978 15.9173 9.47214 15.7206 8.98127C15.524 8.4904 15.2298 8.04452 14.8559 7.6706C14.482 7.29669 14.0361 7.0025 13.5452 6.80584C13.0543 6.60918 12.5287 6.51414 12 6.52645ZM12 12.5265C11.734 12.5393 11.4682 12.4964 11.2197 12.4004C10.9712 12.3045 10.7456 12.1576 10.5572 11.9693C10.3689 11.7809 10.222 11.5553 10.126 11.3068C10.0301 11.0583 9.98716 10.7925 10 10.5265C9.98716 10.2604 10.0301 9.9946 10.126 9.74613C10.222 9.49765 10.3689 9.27199 10.5572 9.08365C10.7456 8.8953 10.9712 8.74843 11.2197 8.65248C11.4682 8.55652 11.734 8.51359 12 8.52645C12.2661 8.51359 12.5319 8.55652 12.7803 8.65248C13.0288 8.74843 13.2545 8.8953 13.4428 9.08365C13.6312 9.27199 13.778 9.49765 13.874 9.74613C13.97 9.9946 14.0129 10.2604 14 10.5265C14.0129 10.7925 13.97 11.0583 13.874 11.3068C13.778 11.5553 13.6312 11.7809 13.4428 11.9693C13.2545 12.1576 13.0288 12.3045 12.7803 12.4004C12.5319 12.4964 12.2661 12.5393 12 12.5265Z" fill="#586283"/>
</svg>
