<svg width="24" height="25" viewBox="0 0 24 25" fill="none" xmlns="http://www.w3.org/2000/svg">
<path d="M15.75 2.02649C14.6959 2.02625 13.6565 2.27291 12.7149 2.74672C11.7734 3.22053 10.9559 3.9083 10.328 4.75493C9.7001 5.60155 9.27925 6.58349 9.09917 7.62204C8.91909 8.6606 8.98479 9.7269 9.291 10.7355L1.5 18.5265V23.0265H6L13.791 15.2355C14.7194 15.5173 15.6977 15.5957 16.6591 15.4652C17.6206 15.3347 18.5426 14.9985 19.3624 14.4795C20.1821 13.9605 20.8804 13.2708 21.4095 12.4576C21.9386 11.6443 22.2862 10.7265 22.4285 9.76674C22.5709 8.80698 22.5046 7.82781 22.2343 6.89597C21.964 5.96413 21.496 5.10151 20.8622 4.36691C20.2283 3.63231 19.4436 3.04298 18.5614 2.6391C17.6792 2.23521 16.7203 2.02626 15.75 2.02649ZM15.75 14.0265C15.2336 14.0262 14.7201 13.9499 14.226 13.8L13.3657 13.539L12.7305 14.1742L10.3448 16.56L9.3105 15.5265L8.25 16.587L9.28425 17.6212L8.09475 18.8107L7.0605 17.7765L6 18.837L7.03425 19.8712L5.379 21.5265H3V19.1475L10.3515 11.796L10.9875 11.1607L10.7265 10.3005C10.4059 9.24373 10.4268 8.1128 10.786 7.06856C11.1453 6.02433 11.8247 5.11996 12.7275 4.48411C13.6304 3.84826 14.7108 3.5133 15.815 3.52689C16.9192 3.54047 17.9911 3.90191 18.878 4.55978C19.765 5.21765 20.4219 6.13846 20.7554 7.19122C21.0888 8.24398 21.0818 9.37508 20.7354 10.4236C20.3889 11.4722 19.7206 12.3848 18.8256 13.0316C17.9305 13.6784 16.8543 14.0266 15.75 14.0265Z" fill="#586283"/>
<path d="M16.5 9.52649C17.3284 9.52649 18 8.85492 18 8.02649C18 7.19806 17.3284 6.52649 16.5 6.52649C15.6716 6.52649 15 7.19806 15 8.02649C15 8.85492 15.6716 9.52649 16.5 9.52649Z" fill="#586283"/>
</svg>
