<svg width="14" height="14" viewBox="0 0 14 14" fill="none" xmlns="http://www.w3.org/2000/svg">
<path d="M12.577 14L7.81002 9.23404C6.76913 9.9207 5.51046 10.1967 4.27775 10.0085C3.04504 9.82039 1.92601 9.1815 1.13735 8.21559C0.348688 7.24968 -0.0534839 6.02547 0.0087129 4.78004C0.0709097 3.53461 0.59305 2.35657 1.47402 1.47404C2.35639 0.592736 3.53443 0.0702538 4.77996 0.00778926C6.0255 -0.0546753 7.2499 0.347323 8.21602 1.13592C9.18213 1.92453 9.82121 3.04361 10.0095 4.27642C10.1977 5.50923 9.92175 6.76804 9.23502 7.80904L14 12.577L12.577 14ZM5.03402 2.01404C4.23307 2.01351 3.46471 2.33118 2.89797 2.89716C2.33124 3.46315 2.01255 4.23109 2.01202 5.03204C2.01149 5.83299 2.32916 6.60135 2.89514 7.16809C3.46113 7.73482 4.22907 8.05351 5.03002 8.05404C5.42661 8.0543 5.81937 7.97645 6.18588 7.82492C6.55238 7.6734 6.88545 7.45116 7.16607 7.17092C7.44669 6.89067 7.66936 6.5579 7.82137 6.19159C7.97338 5.82529 8.05176 5.43263 8.05202 5.03604C8.05228 4.63945 7.97443 4.24669 7.8229 3.88018C7.67138 3.51368 7.44914 3.18061 7.1689 2.89999C6.88865 2.61937 6.55588 2.3967 6.18957 2.24469C5.82327 2.09268 5.43061 2.0143 5.03402 2.01404Z" fill="#586283"/>
</svg>
